# File created by Blade
# Date/Time:  Wed Jan 21 17:57:11 2015
# Frame Rate: 120.000 fps
#------------------------------------------------------
:FULLY-SPECIFIED
:DEGREES
885
root 19.604767 29.018612 -15.803469 -101.238342 2.052455 -180.360579
Spine 71.627320 0.321322 -0.243064
Head 176.297365 0.606934 183.184704
LeftShoulder 22.081925 -41.394911 7.959563
LeftArm 6.365837 18.748147 -12.494436
LeftForeArm 32.949949 0.000000 44.915574
LeftHand -0.171474 -0.000000 -19.288912
LeftHandThumb1 -26.253704 0.000000 33.147579
RightShoulder 12.268193 5.780345 -20.182042
RightArm 14.257782 23.485575 15.245837
RightForeArm -52.724075 0.000000 53.000130
RightHand 5.347090 0.000000 15.958782
RightHandThumb1 -24.326973 -0.000000 -32.862282
LeftUpLeg -80.133745 32.771120 10.488432
LeftLeg 4.977170 -0.000000 -0.000000
LeftFoot -16.746796 12.448693 -22.946518
LeftToeBase 29.739051 -0.000000 -0.000000
RightUpLeg -80.644915 -33.212072 -9.882111
RightLeg 0.390887 -0.000000 -0.000000
RightFoot -14.628335 -2.905183 29.817632
RightToeBase 29.394122 -0.000000 -0.000000
886
root 19.633889 29.059732 -15.811449 -101.316034 1.914471 -180.454145
Spine 71.450668 0.299583 -0.209037
Head 176.177943 0.987787 183.357943
LeftShoulder 22.262002 -41.338666 7.907715
LeftArm 6.419964 18.851340 -12.466871
LeftForeArm 32.968592 -0.000000 44.835072
LeftHand -0.256119 -0.000000 -19.358326
LeftHandThumb1 -26.253704 0.000000 33.147579
RightShoulder 12.316020 5.637967 -20.050440
RightArm 14.544165 23.279464 15.141481
RightForeArm -52.583094 -0.000000 52.456391
RightHand 5.209055 0.000000 15.594510
RightHandThumb1 -24.326973 -0.000000 -32.862282
LeftUpLeg -80.296177 32.680255 10.295920
LeftLeg 4.960362 -0.000000 -0.000000
LeftFoot -16.023106 12.763471 -22.803964
LeftToeBase 29.386682 -0.000000 -0.000000
RightUpLeg -80.774306 -33.326240 -9.345936
RightLeg 0.268391 -0.000000 -0.000000
RightFoot -13.998431 -3.368175 29.853997
RightToeBase 29.364269 -0.000000 -0.000000
887
root 19.664336 29.106679 -15.817518 -101.351521 1.810763 -180.521980
Spine 71.282452 0.294516 -0.271522
Head 176.248213 0.716569 183.403730
LeftShoulder 22.210245 -41.310099 7.956717
LeftArm 6.623659 19.092900 -12.387271
LeftForeArm 32.925987 -0.000000 44.730586
LeftHand -0.247700 -0.000000 -19.277057
LeftHandThumb1 -26.253704 0.000000 33.147579
RightShoulder 12.450567 5.554656 -19.926200
RightArm 14.730431 23.078018 15.016449
RightForeArm -52.500220 -0.000000 52.058831
RightHand 5.224131 -0.000000 15.274581
RightHandThumb1 -24.326973 -0.000000 -32.862282
LeftUpLeg -80.464936 32.621227 10.108955
LeftLeg 4.970112 -0.000000 -0.000000
LeftFoot -15.340034 12.939032 -22.695358
LeftToeBase 29.080242 -0.000000 -0.000000
RightUpLeg -80.932225 -33.393420 -8.856050
RightLeg 0.138734 -0.000000 -0.000000
RightFoot -13.448109 -3.882729 29.866995
RightToeBase 28.878238 -0.000000 -0.000000
888
root 19.692526 29.159760 -15.819859 -101.383030 1.752176 -180.597261
Spine 71.118983 0.319097 -0.307256
Head 176.341425 0.503830 183.396760
LeftShoulder 22.208403 -41.271310 7.978719
LeftArm 6.855769 19.287674 -12.288103
LeftForeArm 32.973814 -0.000000 44.673123
LeftHand -0.289689 -0.000000 -19.265173
LeftHandThumb1 -26.253704 0.000000 33.147579
RightShoulder 12.584903 5.482347 -19.858352
RightArm 14.769223 22.941211 14.946812
RightForeArm -52.477363 -0.000000 51.799359
RightHand 5.277984 -0.000000 15.086604
RightHandThumb1 -24.326973 -0.000000 -32.862282
LeftUpLeg -80.666671 32.544454 9.851830
LeftLeg 5.017701 -0.000000 -0.000000
LeftFoot -14.676603 13.106438 -22.491684
LeftToeBase 29.197857 -0.000000 -0.000000
RightUpLeg -81.186936 -33.459988 -8.323967
RightLeg 0.066206 -0.000000 -0.000000
RightFoot -12.846383 -4.262168 29.886505
RightToeBase 28.675570 -0.000000 -0.000000
889
root 19.721734 29.224439 -15.821367 -101.374190 1.676342 -180.660366
Spine 70.975293 0.311461 -0.385878
Head 176.585181 0.486160 183.423633
LeftShoulder 22.072883 -41.239092 8.134349
LeftArm 6.992322 19.392848 -12.237340
LeftForeArm 32.922822 -0.000000 44.797948
LeftHand -0.279286 -0.000000 -19.406289
LeftHandThumb1 -26.253704 0.000000 33.147579
RightShoulder 12.747998 5.467695 -19.812267
RightArm 14.789179 22.770024 14.851877
RightForeArm -52.513209 -0.000000 51.626931
RightHand 5.300725 -0.000000 14.716877
RightHandThumb1 -24.326973 -0.000000 -32.862282
LeftUpLeg -80.890369 32.462272 9.627767
LeftLeg 5.047049 -0.000000 -0.000000
LeftFoot -13.956317 13.418818 -22.419046
LeftToeBase 28.951555 -0.000000 -0.000000
RightUpLeg -81.533793 -33.524493 -7.618667
RightLeg -0.069549 -0.000000 0.000000
RightFoot -12.116036 -4.623443 29.772487
RightToeBase 28.503889 -0.000000 -0.000000
